<svg width="48" height="48" viewBox="0 0 48 48" fill="none" xmlns="http://www.w3.org/2000/svg">
<path d="M48 24C48 37.2548 37.2548 48 24 48C10.7452 48 0 37.2548 0 24C0 10.7452 10.7452 0 24 0C37.2548 0 48 10.7452 48 24Z" fill="url(#paint0_linear_230_3424)"/>
<path d="M24.2028 35.5415C24.4685 35.5519 24.7315 35.5415 24.9919 35.5102C25.2575 35.4842 25.5101 35.4191 25.7497 35.3149C26.4737 34.9711 26.7211 34.4269 26.4919 33.6821C26.3669 33.3019 26.1716 32.9529 25.906 32.6352C25.5987 32.2446 25.2601 31.8826 24.8903 31.5493C24.5258 31.2159 24.1482 30.8956 23.7575 30.5883C23.5388 30.4269 23.3331 30.4321 23.1403 30.604C22.5414 31.0519 22.0023 31.5519 21.5232 32.104C21.3148 32.354 21.1377 32.6274 20.9919 32.9243C20.6794 33.6586 20.8331 34.2784 21.4528 34.7836C21.7497 35.0128 22.0778 35.1795 22.4372 35.2836C23.0101 35.4555 23.5987 35.5415 24.2028 35.5415ZM24.5622 29.6118C24.5883 29.7107 24.6325 29.7941 24.695 29.8618C24.7575 29.9243 24.8226 29.9764 24.8903 30.018C24.9372 30.0545 24.9841 30.0909 25.031 30.1274C25.2133 30.2836 25.3956 30.4477 25.5778 30.6196C25.9216 30.9217 26.2549 31.2211 26.5778 31.518C27.0466 31.9503 27.4242 32.4529 27.7107 33.0258C27.9971 33.5987 28.07 34.1534 27.9294 34.6899C27.794 35.2316 27.3721 35.6639 26.6638 35.9868C26.3669 36.1222 26.0518 36.2133 25.7185 36.2602C25.0778 36.3383 24.432 36.3696 23.781 36.354C23.1351 36.3383 22.4971 36.2446 21.8669 36.0727C21.5596 35.9894 21.2627 35.88 20.9763 35.7446C20.6898 35.6092 20.432 35.4321 20.2028 35.2133C19.3851 34.4685 19.2133 33.5961 19.6872 32.5961C19.8799 32.2107 20.1247 31.8566 20.4216 31.5336C20.906 31.0284 21.4216 30.5597 21.9685 30.1274C22.2445 29.9086 22.3799 29.7498 22.3747 29.6508C22.3695 29.5519 22.2107 29.4112 21.8982 29.229C21.3409 28.854 20.7758 28.4816 20.2028 28.1118C19.9008 27.9191 19.6013 27.7237 19.3044 27.5258C19.1221 27.4008 18.9398 27.281 18.7575 27.1665C18.2992 26.88 17.8461 26.5779 17.3982 26.2602C16.8929 25.9008 16.4216 25.5102 15.9841 25.0883C15.5414 24.6665 15.1534 24.1899 14.82 23.6586C14.1325 22.5493 13.8773 21.4165 14.0544 20.2602C14.2315 19.104 14.7367 17.9894 15.57 16.9165C16.3982 15.8435 17.4424 14.8774 18.7028 14.018C19.9633 13.1586 21.3304 12.4633 22.8044 11.9321C24.2784 11.4008 25.7445 11.0961 27.2028 11.018C28.6664 10.9347 30.0101 11.1404 31.2341 11.6352C32.4581 12.1248 33.4659 12.9711 34.2575 14.1743C34.3982 14.393 34.5153 14.6248 34.6091 14.8696C34.7081 15.1144 34.7575 15.3748 34.7575 15.6508C34.7575 15.9269 34.6325 16.0987 34.3825 16.1665C34.2107 16.2133 34.0518 16.2107 33.906 16.1586C33.7653 16.1066 33.6586 16.0232 33.5857 15.9086C33.5752 15.8774 33.5648 15.8383 33.5544 15.7915C33.544 15.7654 33.5388 15.742 33.5388 15.7211C33.0127 14.268 32.2341 13.2316 31.2028 12.6118C30.1716 11.992 29.0049 11.7029 27.7028 11.7446C26.4008 11.781 25.07 12.0649 23.7107 12.5961C22.3565 13.1222 21.0831 13.7941 19.8903 14.6118C18.6976 15.4295 17.6976 16.3097 16.8903 17.2524C16.0831 18.1899 15.5831 19.1014 15.3903 19.9868C15.1924 21.0857 15.3799 22.104 15.9528 23.0415C16.4112 23.8331 16.9971 24.5102 17.7107 25.0727C18.2575 25.505 18.8174 25.9165 19.3903 26.3071C19.906 26.6404 20.4164 26.9685 20.9216 27.2915C21.6195 27.7342 22.307 28.1847 22.9841 28.643C23.1768 28.7836 23.3565 28.8487 23.5232 28.8383C23.6898 28.8227 23.8643 28.7524 24.0466 28.6274C24.9528 28.0805 25.8461 27.5779 26.7263 27.1196C27.6117 26.6612 28.1013 26.5362 28.195 26.7446C28.294 26.9477 28.156 27.1873 27.781 27.4633C26.8956 27.9321 26.0466 28.4581 25.2341 29.0415C25.1872 29.0623 25.1429 29.0909 25.1013 29.1274C24.8825 29.242 24.7028 29.4034 24.5622 29.6118Z" fill="white" stroke="white"/>
<defs>
<linearGradient id="paint0_linear_230_3424" x1="23.1875" y1="1.5486e-07" x2="31.2885" y2="46.7367" gradientUnits="userSpaceOnUse">
<stop offset="0.0625" stop-color="#008F55"/>
<stop offset="1" stop-color="#0F0F0F"/>
</linearGradient>
</defs>
</svg>
